<?xml version="1.0" encoding="UTF-8" standalone="no"?>
<svg
   width="1686.9301"
   height="1103.5413"
   xml:space="preserve"
   overflow="hidden"
   version="1.1"
   id="svg13"
   sodipodi:docname="Extension.svg"
   inkscape:version="1.1.2 (0a00cf5339, 2022-02-04)"
   xmlns:inkscape="http://www.inkscape.org/namespaces/inkscape"
   xmlns:sodipodi="http://sodipodi.sourceforge.net/DTD/sodipodi-0.dtd"
   xmlns="http://www.w3.org/2000/svg"
   xmlns:svg="http://www.w3.org/2000/svg"><sodipodi:namedview
     id="namedview15"
     pagecolor="#ffffff"
     bordercolor="#666666"
     borderopacity="1.0"
     inkscape:pageshadow="2"
     inkscape:pageopacity="0.0"
     inkscape:pagecheckerboard="0"
     showgrid="false"
     inkscape:zoom="0.44567474"
     inkscape:cx="-20.194099"
     inkscape:cy="411.73525"
     inkscape:window-width="1920"
     inkscape:window-height="1024"
     inkscape:window-x="0"
     inkscape:window-y="0"
     inkscape:window-maximized="1"
     inkscape:current-layer="g11"
     fit-margin-top="0"
     fit-margin-left="0"
     fit-margin-right="0"
     fit-margin-bottom="0" /><defs
     id="defs5"><clipPath
       id="clip0"><rect
         x="2310"
         y="-200"
         width="2155"
         height="1445"
         id="rect2" /></clipPath></defs><g
     clip-path="url(#clip0)"
     transform="translate(-2558.56,-109.8087)"
     id="g11"><path
       d="m 3483.2,525.294 c -37.17,-1.182 -79.29,5.19 -121.89,19.935 -113.62,39.321 -187.69,123.29 -165.45,187.55 22.24,64.261 132.37,84.478 245.99,45.158 113.61,-39.321 187.68,-123.289 165.44,-187.55 -13.9,-40.163 -62.13,-63.121 -124.09,-65.093 z m 193.38,-415.236 c 19.46,-0.401 38.64,-0.317 57.5,0.243 l 1.66,0.122 v 74.654 l 19.18,1.241 c 20.83,2.112 41.1,4.949 60.75,8.499 l 23.15,5.191 99.94,-60.541 50.33,14.264 c 30.92,10.785 59.7,23.504 86.04,38.1 l 3.75,2.32 -60.61,78.042 35.57,27.622 21.71,22.737 117.15,-31.72 8.51,10.635 c 15.26,21.872 27.44,45.505 36.21,70.842 l 8.07,32.492 -105.57,57.782 2.37,34.837 -3.93,40.858 103.17,13.458 -6.51,26.164 c -8.57,26.565 -20.07,53.265 -34.31,79.884 l -17.53,27.432 -114.49,18.037 -16.2,24.028 c -11.33,15.215 -23.64,30.317 -36.88,45.249 l -14.47,15.051 57.74,50.521 -55.16,51.291 -87.89,66.213 -112.69,-8.618 -50.36,29.915 -51.59,26.647 -4.01,74.56 -7.6,3.78 c -40.27,17.93 -82.14,34.49 -125.42,49.47 l -56.08,17.64 -61.29,-49.96 -53.22,13.46 -67.01,12.86 -55.74,75.81 -44.78,5.87 c -40.59,4.06 -80.29,6.15 -118.83,6.31 l -36.11,-0.76 6.53,-73.84 -29.39,-1.9 c -20.84,-2.11 -41.11,-4.95 -60.75,-8.5 l -19.48,-4.37 -95.49,62.5 -28.13,-7.29 c -34.83,-10.3 -67.29,-22.88 -96.99,-37.67 l -23.74,-13.34 66.95,-73.5 -3.86,-2.26 c -13.43,-9.03 -25.93,-18.73 -37.44,-29.07 l -21.53,-22.55 -118.84,30 -3.27,-3.88 c -17.02,-23.32 -30.46,-48.699 -39.93,-76.063 l -7.18,-31.865 105.04,-52.981 -2.74,-40.265 4.28,-44.43 -103.28,-11.166 2.24,-11.613 c 6.32,-22.096 14.7,-44.309 25.02,-66.517 l 28.24,-52.805 121.1,-25.23 12.21,-18.1 c 11.32,-15.215 23.63,-30.316 36.88,-45.248 l 17.32,-18.031 -57.93,-51.754 52.49,-47.079 81.71,-61.554 115.58,5.911 53.65,-31.867 58.83,-30.382 3.67,-74.256 0.71,-0.352 c 40.27,-17.929 82.14,-34.489 125.41,-49.467 l 69.89,-21.311 53.56,52.094 47.14,-11.918 c 24.61,-5.469 49.02,-10.147 73.16,-14.046 l 6.01,-0.787 55.29,-75.149 28,-4.046 c 35.57,-3.699 70.48,-5.883 104.54,-6.585 z"
       fill="#10069f"
       fill-rule="evenodd"
       id="path7" /></g></svg>
